<?xml version="1.0" encoding="UTF-8"?>
<svg id="Layer_2" xmlns="http://www.w3.org/2000/svg" version="1.1" viewBox="0 0 2000 2000">
  <!-- Generator: Adobe Illustrator 29.8.1, SVG Export Plug-In . SVG Version: 2.1.1 Build 2)  -->
  <defs>
    <style>
      .st0 {
        fill: #b2b1b1;
      }
    </style>
  </defs>
  <path class="st0" d="M427.82,1395.49h-.06c2.09,8.42,4.4,16.75,6.88,25.02.71,2.39,1.46,4.77,2.21,7.15,4.7,14.89,10,29.56,15.92,43.98,7.18,17.52,15.24,34.66,24.14,51.34,36.54,68.63,87.2,129.79,148.7,178.45,85.65,67.77,186.16,108.34,293.48,118.9,11.6,1.16,23.29,1.94,35.05,2.38,2.37.09,4.75.17,7.11.23h.23c.05,0,.09.01.13.01,4.77.1,9.55.17,14.33.17h.01c4.79,0,9.56-.06,14.33-.17.04,0,.08-.01.12-.01h.23c2.37-.07,4.75-.14,7.11-.23h.01c11.76-.44,23.45-1.22,35.03-2.38,107.32-10.56,207.83-51.13,293.48-118.9,34.88-27.6,66.27-59.22,93.58-93.94,4.29-5.45,11.72-15.72,18.72-25.58,3.19.95,6.41,1.8,9.69,2.44,2.77.54,5.57.98,8.4,1.3l.57.06c47.44,3.91,99.89-29.07,135.54-57.43,22.82-18.17,41.16-40.74,51.62-63.57,13.81-30.13,14.04-60.28.65-87.19-8.57-17.23-21.37-31.34-32.67-43.8-2.82-3.1-5.65-6.21-8.49-9.35-22.14-24.38-43.01-47.96-62.95-71.07v-403.45s0,0,0,0v-66.58s0-.01,0-.01v-59.93c0-1.72-.01-3.45-.03-5.16,0-.43-.01-.86-.01-1.29,0-.77-.01-1.52-.03-2.29,0-.18,0-.36-.01-.55-.01-1.14-.04-2.28-.07-3.41-.03-1.22-.05-2.46-.09-3.68-.04-1.27-.08-2.55-.13-3.82-.04-1.03-.08-2.04-.12-3.07-.07-1.52-.13-3.04-.21-4.56-.08-1.43-.14-2.86-.23-4.29-.01-.35-.04-.71-.05-1.07-.07-1.08-.13-2.15-.21-3.23-.01-.12-.01-.22-.03-.34,0-.06-.01-.12-.01-.18-.12-2.03-.27-4.05-.43-6.07-.04-.61-.08-1.22-.13-1.82-.01-.18-.03-.35-.04-.53l-.08-.91c-.03-.36-.06-.74-.09-1.11-.16-1.81-.31-3.62-.48-5.41,0-.09-.01-.17-.03-.26-.13-1.34-.26-2.68-.39-4.02-.04-.42-.08-.82-.13-1.24-.04-.34-.06-.66-.1-1-.22-2.12-.45-4.27-.7-6.39,0,0-.01,0-.01-.01-.01-.1-.03-.21-.04-.31-.35-3.12-.75-6.22-1.16-9.32-.12-.87-.25-1.76-.38-2.64-.33-2.37-.66-4.73-1.01-7.1-.16-.98-.3-1.94-.46-2.9-.38-2.42-.77-4.82-1.17-7.23-.14-.79-.27-1.59-.4-2.38-1.13-6.46-2.37-12.91-3.72-19.34-.29-1.39-.6-2.78-.9-4.17-.36-1.69-.74-3.38-1.13-5.07-.22-.99-.43-1.99-.66-2.98-.21-.92-.44-1.86-.68-2.78-.1-.47-.22-.92-.32-1.38-.53-2.21-1.08-4.42-1.65-6.63-.17-.7-.35-1.41-.53-2.11-.52-1.99-1.04-3.99-1.59-5.98-.23-.86-.47-1.72-.7-2.59-.52-1.85-1.03-3.71-1.56-5.55-.27-.95-.55-1.89-.83-2.83-.52-1.78-1.04-3.56-1.57-5.34-.3-.95-.6-1.91-.88-2.86-.56-1.78-1.11-3.56-1.68-5.34-.27-.87-.57-1.74-.86-2.63-.6-1.86-1.21-3.72-1.83-5.57-.23-.72-.48-1.42-.73-2.13-.69-2.02-1.38-4.04-2.09-6.06-.14-.4-.3-.82-.44-1.22-.7-1.98-1.42-3.97-2.15-5.94h-.01s-.03-.08-.04-.12c-.1-.27-.21-.56-.31-.84-.26-.72-.55-1.42-.82-2.13-.83-2.24-1.69-4.46-2.56-6.68-.44-1.14-.9-2.3-1.35-3.45-.87-2.18-1.77-4.37-2.67-6.55-.35-.84-.68-1.69-1.04-2.55-.85-2-1.7-4.01-2.58-6.01-.16-.35-.3-.7-.45-1.05-.32-.77-.68-1.52-1.01-2.29-2.03-4.59-4.11-9.17-6.25-13.71-.38-.81-.77-1.61-1.16-2.42-1.09-2.28-2.2-4.54-3.32-6.8-.36-.74-.73-1.49-1.11-2.24-1.42-2.83-2.86-5.67-4.34-8.49-.35-.69-.73-1.37-1.09-2.05-1.14-2.17-2.3-4.34-3.49-6.5-.53-.99-1.08-1.98-1.61-2.95-1.16-2.09-2.33-4.19-3.52-6.27-.43-.75-.85-1.51-1.27-2.26-1.55-2.69-3.12-5.36-4.71-8.01-.53-.91-1.08-1.79-1.63-2.69-1.18-1.96-2.38-3.93-3.6-5.87-.56-.91-1.12-1.81-1.68-2.7-1.72-2.72-3.45-5.44-5.21-8.14-.83-1.27-1.7-2.54-2.56-3.81l-.31-.47s-.01-.03-.03-.04h-.01c-3.91-5.89-7.95-11.7-12.09-17.44-1.34-1.85-2.69-3.69-4.04-5.53-.16-.19-.31-.4-.44-.6-1.36-1.82-2.73-3.63-4.11-5.44-.03-.03-.04-.07-.07-.09-1.44-1.89-2.89-3.76-4.36-5.63-.01-.03-.04-.05-.06-.08,0-.03-.03-.04-.04-.07-.99-1.26-1.99-2.52-2.99-3.77-.14-.18-.29-.35-.43-.53-.86-1.08-1.72-2.15-2.59-3.21-2.02-2.48-4.06-4.95-6.11-7.4-.85-1.01-1.69-2.02-2.55-3.02-.92-1.11-1.87-2.21-2.84-3.3-.69-.79-1.36-1.59-2.05-2.37-1.21-1.39-2.43-2.77-3.65-4.15-2.05-2.31-4.14-4.6-6.24-6.88-1.04-1.14-2.09-2.28-3.16-3.41l-.05-.05c-2.28-2.46-4.62-4.89-6.97-7.31-.79-.83-1.6-1.65-2.42-2.47-1.16-1.18-2.33-2.37-3.5-3.54-.38-.38-.75-.75-1.14-1.13-1.56-1.56-3.13-3.11-4.72-4.64-.95-.92-1.9-1.83-2.85-2.74-1.64-1.56-3.28-3.12-4.93-4.67-2.82-2.64-5.67-5.25-8.56-7.85-.45-.4-.92-.8-1.38-1.21-2.12-1.89-4.25-3.78-6.41-5.64-.23-.2-.46-.41-.7-.62-.25-.22-.52-.43-.78-.66-2.34-2.02-4.71-4.02-7.1-5.99-.7-.59-1.42-1.16-2.12-1.74-1.96-1.61-3.93-3.21-5.9-4.81-.29-.22-.57-.45-.86-.69-.9-.71-1.82-1.43-2.73-2.15-.87-.7-1.76-1.39-2.63-2.08-2.16-1.68-4.32-3.34-6.5-4.99-.09-.06-.17-.13-.26-.19-.06-.05-.14-.1-.22-.17-2.82-2.12-5.66-4.21-8.52-6.27-.95-.69-1.9-1.38-2.86-2.07-.16-.12-.31-.23-.48-.35-2.56-1.83-5.15-3.64-7.74-5.44-.73-.49-1.46-1-2.2-1.5-.84-.58-1.68-1.17-2.54-1.74-1.2-.81-2.42-1.6-3.64-2.41-1.46-.96-2.91-1.94-4.38-2.9-2.02-1.31-4.04-2.59-6.07-3.87-1.29-.82-2.59-1.66-3.89-2.47-3.19-1.99-6.4-3.94-9.64-5.85-1.35-.81-2.7-1.59-4.07-2.38-2.03-1.18-4.06-2.37-6.1-3.51-1.53-.87-3.08-1.73-4.63-2.59-1.89-1.04-3.77-2.08-5.67-3.11-1.59-.86-3.17-1.69-4.76-2.54-1.91-1-3.82-1.99-5.74-2.98-1.57-.79-3.13-1.6-4.72-2.39-2.02-1-4.03-1.99-6.06-2.98-1.48-.72-2.95-1.44-4.43-2.15-2.47-1.17-4.97-2.31-7.45-3.45-1.04-.48-2.08-.98-3.13-1.44-3.47-1.56-6.96-3.08-10.46-4.56-1.25-.53-2.51-1.04-3.76-1.56-2.35-.98-4.72-1.95-7.09-2.9-1.44-.58-2.89-1.14-4.34-1.7-2.21-.87-4.43-1.72-6.66-2.56-1.48-.55-2.96-1.09-4.45-1.64-2.25-.83-4.51-1.64-6.78-2.43-1.43-.49-2.86-1-4.29-1.5-2.47-.85-4.94-1.67-7.43-2.47-1.22-.4-2.45-.81-3.68-1.2-3.56-1.14-7.14-2.25-10.74-3.32-.12-.04-.25-.08-.38-.12-.01,0-.03,0-.04-.01-.03,0-.05-.01-.09-.03-1.7-.49-3.41-.99-5.12-1.48-.5-.14-1-.29-1.51-.43-1.95-.55-3.9-1.08-5.85-1.61-.63-.18-1.27-.35-1.9-.52-.47-.12-.93-.24-1.4-.36-1-.26-2-.52-2.99-.78-.92-.24-1.85-.49-2.77-.72-2.45-.61-4.9-1.21-7.37-1.81-17.05-4.06-34.33-7.33-51.81-9.78-.1-.01-.2-.04-.3-.05-.55-.08-1.09-.14-1.64-.22-3.38-.47-6.76-.9-10.16-1.3-.82-.1-1.64-.21-2.46-.3-3.75-.43-7.5-.83-11.26-1.18-.35-.04-.69-.07-1.03-.1h-.01c-4.13-.38-8.3-.73-12.46-1.03-1.44-.12-2.9-.21-4.34-.3-.55-.03-1.09-.05-1.64-.09-2.46-.14-4.92-.29-7.39-.4-.12-.01-.25-.03-.36-.03-1.6-.08-3.21-.14-4.82-.21-1.6-.07-3.21-.12-4.82-.17-.81-.03-1.63-.05-2.43-.07-2.08-.05-4.16-.09-6.26-.13-2.9-.04-5.79-.07-8.7-.07s-5.8.03-8.7.07c-2.09.04-4.17.08-6.26.13-.81.01-1.63.04-2.43.07-1.61.05-3.23.1-4.82.17-1.61.06-3.23.13-4.82.21-.12,0-.25.01-.36.03-2.47.12-4.93.26-7.39.4-.55.04-1.09.07-1.64.09-1.44.09-2.9.18-4.34.3-4.16.3-8.32.65-12.46,1.03h-.01c-.34.04-.68.06-1.03.1-3.76.35-7.52.75-11.26,1.18-.82.09-1.64.2-2.46.3-3.39.4-6.78.83-10.16,1.3-.55.08-1.09.14-1.64.22-.09.01-.2.04-.29.05-17.48,2.44-34.76,5.72-51.82,9.78-2.46.6-4.92,1.2-7.36,1.81-1.51.39-3,.78-4.51,1.17-.88.23-1.77.46-2.67.69-1.31.35-2.63.73-3.94,1.08-.65.18-1.3.36-1.95.54-1.4.39-2.79.79-4.19,1.19-1.43.41-2.87.82-4.3,1.24-.03.01-.05.03-.08.03-.01.01-.03.01-.05.01-.12.04-.25.08-.38.12-3.59,1.07-7.17,2.17-10.73,3.32-1.24.39-2.46.79-3.68,1.2-2.48.81-4.95,1.62-7.43,2.47-1.43.49-2.86,1-4.29,1.5-2.26.79-4.53,1.6-6.78,2.43-1.5.55-2.98,1.09-4.45,1.64-2.24.84-4.45,1.69-6.66,2.56-1.46.56-2.9,1.12-4.34,1.7-2.38.95-4.73,1.92-7.09,2.9-1.26.52-2.51,1.03-3.77,1.56-3.5,1.48-6.98,3-10.44,4.56-1.05.47-2.09.96-3.13,1.44-2.5,1.13-4.98,2.28-7.45,3.45-1.48.7-2.95,1.43-4.44,2.15-2.03.99-4.06,1.98-6.06,2.98-1.59.79-3.16,1.6-4.72,2.39-1.92.99-3.82,1.98-5.74,2.98-1.59.85-3.17,1.68-4.76,2.54-1.9,1.03-3.78,2.07-5.68,3.11-1.54.86-3.08,1.72-4.62,2.59-2.04,1.14-4.07,2.33-6.1,3.51-1.37.79-2.73,1.57-4.08,2.38-3.22,1.91-6.44,3.86-9.64,5.85-1.29.81-2.57,1.65-3.87,2.47-2.03,1.27-4.06,2.56-6.09,3.87-1.46.96-2.91,1.94-4.37,2.9-1.22.81-2.45,1.6-3.65,2.41-.85.57-1.69,1.17-2.54,1.74-.73.49-1.46,1-2.19,1.5-2.59,1.79-5.18,3.6-7.75,5.44-.16.12-.31.23-.47.35-.96.69-1.91,1.38-2.86,2.07-2.86,2.05-5.7,4.15-8.52,6.27-.08.06-.16.12-.23.17-.09.06-.17.13-.26.19-2.17,1.65-4.33,3.32-6.49,4.99-.88.69-1.74,1.38-2.63,2.07-.91.73-1.83,1.44-2.74,2.16-.27.23-.56.47-.85.69-1.98,1.59-3.94,3.2-5.89,4.8-.72.59-1.43,1.17-2.15,1.76-2.38,1.99-4.75,3.98-7.09,5.99-.26.23-.53.44-.79.66-2.11,1.83-4.19,3.68-6.27,5.53-.5.44-1,.88-1.5,1.32-.18.16-.37.33-.56.49-.05.04-.09.08-.14.13-2.89,2.6-5.75,5.21-8.57,7.85-1.65,1.55-3.29,3.11-4.93,4.67-.95.91-1.9,1.82-2.85,2.74-1.59,1.53-3.16,3.08-4.72,4.64-.39.38-.77.76-1.14,1.13-1.17,1.17-2.34,2.35-3.5,3.54-.82.82-1.62,1.64-2.42,2.47-2.34,2.42-4.68,4.85-6.97,7.31-.01.03-.03.04-.05.05-1.07,1.13-2.12,2.26-3.16,3.41-2.11,2.28-4.19,4.56-6.24,6.88-1.22,1.38-2.44,2.76-3.65,4.15-.69.78-1.37,1.57-2.05,2.37-.96,1.09-1.91,2.2-2.84,3.3-.86,1-1.7,2-2.55,3.02-2.05,2.44-4.1,4.92-6.11,7.4-.87,1.07-1.73,2.13-2.59,3.21-.14.18-.29.35-.43.53-1,1.25-2,2.51-2.99,3.77-.01.03-.04.04-.04.07-.03.03-.05.05-.06.08-1.47,1.87-2.91,3.75-4.36,5.63-.03.03-.04.07-.07.09-1.38,1.81-2.74,3.62-4.11,5.44-.13.2-.29.4-.44.6-1.35,1.83-2.7,3.68-4.04,5.53-4.15,5.74-8.18,11.55-12.09,17.43h-.01s-.01.04-.03.05c-.1.16-.21.31-.31.47-.86,1.27-1.73,2.54-2.56,3.81-1.76,2.7-3.49,5.42-5.2,8.14-.56.9-1.12,1.8-1.69,2.7-1.21,1.94-2.41,3.9-3.59,5.87-.55.9-1.09,1.78-1.63,2.69-1.59,2.65-3.16,5.32-4.71,8.01-.43.75-.86,1.51-1.29,2.26-1.18,2.08-2.35,4.17-3.51,6.27-.55.98-1.08,1.96-1.63,2.95-1.17,2.16-2.33,4.33-3.47,6.5-.36.69-.74,1.37-1.09,2.05-1.48,2.82-2.93,5.66-4.34,8.49-.38.74-.74,1.5-1.1,2.24-1.13,2.26-2.24,4.53-3.32,6.8-.39.81-.78,1.61-1.16,2.42-2.15,4.54-4.24,9.12-6.25,13.71-.34.77-.69,1.52-1.01,2.29-.16.35-.3.7-.45,1.05-.87,2-1.73,4.01-2.59,6.01-.35.86-.68,1.7-1.03,2.55-.91,2.19-1.79,4.37-2.67,6.55-.45,1.14-.91,2.3-1.35,3.45-.87,2.22-1.73,4.45-2.56,6.68-.27.72-.56,1.42-.83,2.13-.1.29-.19.57-.3.84-.01.04-.03.08-.05.12h-.01c-.73,1.98-1.43,3.97-2.13,5.94-.14.4-.3.82-.44,1.22-.72,2.02-1.41,4.04-2.09,6.06-.25.72-.49,1.42-.74,2.13-.62,1.85-1.22,3.71-1.83,5.57-.27.88-.57,1.76-.85,2.63-.57,1.78-1.12,3.56-1.68,5.34-.29.95-.59,1.91-.88,2.86-.53,1.78-1.05,3.56-1.57,5.34-.29.95-.56,1.88-.83,2.83-.53,1.85-1.04,3.71-1.56,5.55-.23.87-.47,1.73-.7,2.59-.55,1.99-1.07,3.99-1.59,5.98-.18.7-.36,1.4-.55,2.11-.56,2.21-1.11,4.42-1.64,6.63-.1.46-.22.91-.34,1.38-.22.92-.45,1.86-.68,2.78-.22.99-.43,1.99-.65,2.98-.39,1.69-.77,3.38-1.13,5.07-.3,1.39-.61,2.78-.9,4.17-1.35,6.42-2.59,12.87-3.72,19.34-.13.79-.26,1.59-.4,2.38-.4,2.41-.79,4.81-1.17,7.23-.16.96-.31,1.92-.45,2.9-.35,2.37-.69,4.73-1.03,7.1-.12.88-.25,1.77-.36,2.64-.4,3.11-.81,6.2-1.16,9.32-.01.1-.04.21-.05.31,0,.01-.01.01-.01.01-.25,2.12-.48,4.27-.7,6.39-.04.34-.07.66-.1,1-.04.42-.08.82-.12,1.24-.13,1.34-.27,2.68-.4,4.02,0,.09-.01.17-.01.26-.17,1.79-.33,3.6-.48,5.41-.03.36-.07.74-.1,1.11l-.06.91c-.01.18-.03.35-.05.53-.05.6-.09,1.21-.13,1.82-.16,2.03-.31,4.04-.43,6.07,0,.06-.01.12-.01.18-.01.12-.01.22-.03.34-.08,1.08-.14,2.15-.21,3.23-.01.35-.04.72-.05,1.07-.09,1.43-.16,2.86-.23,4.29-.08,1.52-.14,3.04-.21,4.56-.04,1.03-.08,2.04-.12,3.07-.05,1.27-.09,2.55-.13,3.82-.04,1.22-.07,2.46-.09,3.68-.03,1.13-.05,2.26-.07,3.41v.55c-.01.77-.03,1.52-.04,2.29,0,.43-.01.86-.01,1.29-.01,1.72-.03,3.45-.03,5.16v534.83c0,29.23,2.24,57.95,6.53,86,2.67,17.39,6.14,34.51,10.35,51.33ZM1409.82,1572.55c-.87,1.21-1.74,2.43-2.64,3.63-.88,1.2-1.78,2.38-2.68,3.58-.82,1.09-1.64,2.19-2.47,3.28-1.36,1.78-2.74,3.55-4.12,5.32-.86,1.09-1.72,2.17-2.59,3.26-1.29,1.61-2.57,3.22-3.88,4.82-.71.88-1.44,1.74-2.16,2.61-1.11,1.34-2.21,2.68-3.33,4-.79.95-1.61,1.89-2.42,2.82-1.05,1.24-2.11,2.47-3.16,3.69-.87,1-1.76,1.99-2.63,2.98-1.01,1.14-2.03,2.3-3.06,3.45-.92,1.03-1.87,2.05-2.81,3.09-.99,1.07-1.96,2.15-2.94,3.21-1,1.08-2.02,2.15-3.03,3.21-.94,1-1.87,1.99-2.82,2.98-1.08,1.13-2.16,2.25-3.25,3.37-.88.91-1.77,1.82-2.65,2.72-1.17,1.18-2.35,2.35-3.54,3.54-.75.74-1.51,1.5-2.26,2.25-2.64,2.59-5.29,5.15-7.98,7.69-.01.01-.04.04-.05.05-2.56,2.42-5.16,4.8-7.76,7.17-.81.73-1.6,1.44-2.39,2.16-2.03,1.81-4.07,3.6-6.12,5.4-.7.61-1.4,1.22-2.11,1.83-2.76,2.37-5.53,4.71-8.34,7.02-1.95,1.6-3.9,3.2-5.88,4.79-.73.59-1.47,1.16-2.2,1.74-1.4,1.11-2.81,2.22-4.23,3.32-.86.68-1.73,1.34-2.6,2-1.31,1.01-2.63,2.02-3.95,3.02-.87.65-1.74,1.3-2.61,1.95-1.38,1.03-2.76,2.04-4.14,3.06-.82.58-1.63,1.17-2.43,1.77-1.61,1.16-3.24,2.3-4.86,3.45-.59.42-1.17.83-1.77,1.25-2.28,1.59-4.56,3.17-6.87,4.72-.01,0-.01.01-.01.01-2.28,1.54-4.56,3.04-6.87,4.55-.55.35-1.08.7-1.63,1.05-1.8,1.16-3.6,2.31-5.41,3.46-.62.39-1.26.78-1.89,1.18-1.81,1.12-3.61,2.24-5.42,3.34-.56.34-1.12.69-1.69,1.03-2.11,1.27-4.23,2.54-6.37,3.78-.23.14-.47.29-.7.42-4.98,2.9-10,5.72-15.07,8.47-.21.12-.42.22-.61.34-2.28,1.22-4.56,2.43-6.87,3.63-.39.2-.78.4-1.17.6-2.2,1.14-4.41,2.26-6.62,3.37-.34.17-.68.34-1,.51-10.38,5.15-20.94,9.99-31.67,14.47-.17.07-.34.14-.49.21-2.58,1.07-5.15,2.12-7.74,3.15-.13.05-.26.1-.39.16-17.36,6.91-35.18,12.92-53.37,18l-34.02,8.33c-1.95.4-3.89.81-5.85,1.19-1.34.27-2.7.52-4.06.78-2.05.39-4.12.79-6.19,1.16-1.16.21-2.33.39-3.49.59-3.76.65-7.53,1.25-11.31,1.81-1.57.23-3.15.47-4.71.69-1.92.27-3.84.52-5.76.77-2.07.27-4.15.53-6.22.77-1.12.13-2.24.27-3.36.4-3.32.36-6.65.69-9.99,1-.95.08-1.91.17-2.87.25-3.52.3-7.06.59-10.62.82h-.01c-.17.01-.34.03-.52.03-.08.01-.16.01-.25.01-.35.04-.72.05-1.09.08h-.03c-1.51.1-3.03.18-4.55.26-2.81.16-5.62.3-8.43.4-.16.01-.31.01-.47.03-1.8.06-3.59.12-5.38.17-.82.03-1.65.04-2.48.07-1.14.03-2.29.05-3.45.07-.61.03-1.24.03-1.86.03-2.39.03-4.79.05-7.19.05h-.01c-2.41,0-4.8-.03-7.19-.05-.62,0-1.25,0-1.87-.03-1.16-.01-2.3-.04-3.45-.07-.83-.03-1.66-.04-2.48-.07-1.79-.05-3.59-.1-5.38-.17-.16-.01-.31-.01-.47-.03-2.81-.1-5.62-.25-8.43-.4-1.51-.08-3.03-.16-4.55-.26h-.03c-.32-.02-.64-.04-.96-.07-23.57-55.78-39.06-111.02-46.07-164.8l-.48-3.72c-.87-7.07-1.61-14.1-2.24-21.1-2.21-24.9-2.88-49.32-1.97-73.2,2.65-70.05,18.92-133.89,48.38-190.15,34.81,35.17,92.19,62.57,171.62,81.77l123.15,34.09,39.08,10.55c19.76,6.67,39.65,13.37,59.4,20,2.24.75,4.3,1.93,6.08,3.48,4.67,4.07,14.03,12.72,19.54,21.18,16.48,26.76,34.45,46.19,54.23,58.61-.67.93-1.35,1.86-2.02,2.78ZM1585.48,1358.85c10.62,11.7,20.64,22.75,26.92,35.37,18.76,37.71-11.01,80.08-42.19,104.9-42.99,34.19-81.94,51.82-109.74,49.67-28.67-3.39-52.89-23.93-76.18-64.55-2.98-5.18-5.94-10.66-9.05-16.74l-.03-.07c-2.18-4.26-5.92-7.48-10.41-8.98l-.07-.02c-4.5-1.5-8.99-3.01-13.49-4.52l-.46-.16c-22.13-7.42-44.47-12.22-66.67-19.71l-39.13-11.99-125.36-34.7-.57-.15c-57.66-13.92-102.62-32.18-133.63-54.28-24.61-17.53-40.44-37.56-47.06-59.52-18.41-61.09,38.35-123.16,38.94-123.79,6.72-7.2,6.33-18.49-.86-25.22-7.2-6.74-18.5-6.37-25.24.83-2.92,3.12-71.3,77.41-47.1,158.26,2.65,8.86,6.33,17.37,10.95,25.57-36.97,64.47-57.27,138.37-60.36,219.82-.5,13.27-.55,26.7-.15,40.26.13,4.22.3,8.46.51,12.71.77,15.3,2.11,30.77,4.01,46.4l.64,5.03c6.69,51.01,20.57,103.13,41.23,155.64-1.41-.2-2.81-.41-4.22-.62-3.78-.56-7.56-1.16-11.31-1.81-1.17-.2-2.33-.38-3.49-.59-2.07-.36-4.14-.77-6.19-1.16-1.37-.26-2.72-.51-4.07-.78-2.07-.4-4.14-.83-6.2-1.26-1.27-.27-2.55-.55-3.82-.83-28.65-6.24-56.47-14.77-83.22-25.42-.13-.05-.26-.1-.39-.16-2.58-1.03-5.15-2.08-7.72-3.15-.17-.07-.33-.14-.49-.21-10.73-4.49-21.29-9.32-31.67-14.47-.34-.17-.66-.34-1-.51-2.22-1.11-4.42-2.22-6.62-3.37-.39-.2-.78-.4-1.17-.6-2.3-1.2-4.59-2.41-6.87-3.63-.2-.12-.4-.22-.61-.34-5.07-2.74-10.09-5.57-15.07-8.47-.23-.13-.47-.27-.72-.42-2.13-1.25-4.25-2.51-6.37-3.78-.56-.34-1.12-.69-1.68-1.03-1.81-1.11-3.63-2.22-5.42-3.34-.64-.4-1.26-.79-1.89-1.18-1.81-1.14-3.62-2.3-5.41-3.46-.55-.35-1.08-.7-1.63-1.05-2.3-1.51-4.59-3.02-6.87-4.55,0,0,0-.01-.01-.01-2.3-1.55-4.59-3.13-6.88-4.72l-1.76-1.25c-1.62-1.14-3.25-2.29-4.86-3.45-.81-.6-1.61-1.18-2.43-1.77-1.38-1.01-2.76-2.03-4.13-3.06-.87-.65-1.76-1.3-2.63-1.95-1.31-1-2.63-2-3.95-3.02-.86-.66-1.73-1.33-2.59-2-1.42-1.09-2.82-2.21-4.23-3.32-.73-.59-1.47-1.16-2.2-1.74-1.98-1.59-3.94-3.19-5.89-4.79-2.8-2.31-5.57-4.66-8.32-7.02-.7-.61-1.4-1.22-2.11-1.83-2.06-1.79-4.1-3.59-6.13-5.4-.79-.72-1.6-1.43-2.39-2.16-2.6-2.37-5.2-4.75-7.76-7.17-.03-.01-.04-.04-.07-.05-2.68-2.54-5.33-5.1-7.97-7.69-.75-.75-1.51-1.51-2.26-2.25-1.18-1.18-2.37-2.35-3.54-3.54-.88-.9-1.77-1.81-2.65-2.72-1.09-1.12-2.17-2.24-3.25-3.37-.95-.99-1.89-1.98-2.82-2.98-1.01-1.07-2.03-2.13-3.03-3.21-.98-1.07-1.95-2.13-2.93-3.21-.95-1.03-1.9-2.07-2.84-3.11-1.01-1.13-2.03-2.29-3.04-3.43-.87-.99-1.76-1.98-2.63-2.98-1.07-1.22-2.11-2.46-3.16-3.69-.81-.94-1.63-1.87-2.42-2.82-1.12-1.33-2.22-2.67-3.33-4-.72-.87-1.44-1.73-2.16-2.61-1.3-1.6-2.59-3.21-3.88-4.82-.87-1.09-1.73-2.17-2.59-3.26-1.38-1.77-2.77-3.54-4.12-5.32-.83-1.09-1.65-2.18-2.47-3.28-.9-1.2-1.79-2.38-2.68-3.58-.9-1.2-1.77-2.42-2.64-3.63-.81-1.09-1.61-2.2-2.41-3.3-.9-1.26-1.8-2.55-2.69-3.82-.74-1.05-1.5-2.12-2.24-3.19-.9-1.31-1.79-2.63-2.68-3.94-.71-1.05-1.43-2.11-2.15-3.16-.88-1.34-1.77-2.68-2.65-4.03-.68-1.04-1.37-2.09-2.05-3.15-.87-1.35-1.74-2.73-2.61-4.1-.66-1.05-1.33-2.11-1.98-3.15-.86-1.39-1.72-2.78-2.56-4.17-.6-.98-1.2-1.95-1.78-2.93-3.72-6.18-7.3-12.43-10.75-18.77,0,.01-.01.01-.01.01-9.4-17.17-17.89-34.9-25.42-53.15-11.87-26.7-17.87-50.41-17.87-50.41-2.75-9.2-5.25-18.5-7.51-27.89-1.56-6.46-3-12.99-4.32-19.55-6.87-34.18-10.47-69.52-10.47-105.7v-120.35c31.24-37.64,68.54-78.13,112.31-118.41,135.71-124.89,290.31-209.55,459.48-251.63l3.27-.81,185.06-131.19,26.51,258.45,112.42,160.3,34.04,47.42c3.11,4.21,6.2,8.4,9.28,12.55,13.45,18.12,27.52,36.56,41.82,54.8,8.24,10.54,16.72,21.18,25.91,32.56,38.46,47.59,80,95.88,126.95,147.6,2.84,3.14,5.69,6.28,8.52,9.39ZM1451.7,476.22c1.59,3.04,3.15,6.11,4.67,9.18.03.07.05.12.08.17,1.67,3.34,3.28,6.71,4.85,10.08,1.41,2.98,2.77,5.96,4.11,8.96,1.44,3.24,2.86,6.48,4.23,9.73.03.04.04.08.05.1,1.34,3.19,2.65,6.39,3.93,9.58l.2.47c.94,2.34,1.85,4.68,2.74,7.04.14.38.29.75.43,1.12.82,2.17,1.63,4.33,2.42,6.5.21.55.4,1.11.6,1.65.73,2.02,1.46,4.04,2.16,6.07.23.69.47,1.38.72,2.07.65,1.91,1.3,3.81,1.92,5.74.27.82.53,1.64.81,2.46.59,1.79,1.16,3.59,1.73,5.38.3.96.59,1.92.89,2.9.51,1.65,1.01,3.32,1.51,4.98.36,1.18.7,2.39,1.04,3.59,1.27,4.38,2.5,8.78,3.65,13.2,4.04,15.4,7.4,30.99,10.05,46.71.04.22.08.46.12.69.99,5.93,1.89,11.89,2.68,17.87.08.56.16,1.12.22,1.69.38,2.89.74,5.79,1.07,8.69.25,2.24.49,4.49.71,6.72.16,1.63.31,3.25.46,4.88.09.88.17,1.77.25,2.65.03.22.04.44.05.66.21,2.3.39,4.59.55,6.89.17,2.34.33,4.68.46,7.02.01.29.04.57.05.86.09,1.46.17,2.93.23,4.4.08,1.46.14,2.91.2,4.38.06,1.33.12,2.65.16,3.99,0,.3.01.6.03.9.04,1.3.08,2.6.1,3.91.04,1.38.08,2.74.09,4.12v.02c-33.73-67.91-79.93-128.45-136.17-178.93l59.46-88.46c1.78,2.96,3.58,5.91,5.3,8.9,1.72,2.96,3.38,5.93,5.02,8.91.3.53.59,1.07.88,1.6,1.61,2.94,3.2,5.9,4.75,8.87.2.36.38.73.56,1.09ZM1260.98,269.42c1.21.75,2.41,1.52,3.62,2.29,5.62,3.59,11.17,7.28,16.65,11.09.4.27.79.55,1.2.82,2.86,2,5.72,4.03,8.54,6.09.21.16.42.31.62.46,2.98,2.17,5.93,4.38,8.86,6.61.43.33.85.64,1.26.96,2.98,2.28,5.93,4.58,8.86,6.92.53.43,1.08.87,1.61,1.31,2.12,1.7,4.23,3.43,6.32,5.18,1.17.98,2.33,1.92,3.49,2.9,2.28,1.92,4.53,3.88,6.78,5.84.64.55,1.29,1.09,1.91,1.65.14.12.27.24.41.36l22.81,21.38c.14.13.27.27.41.4,0,.01.01.01.03.03.61.61,1.22,1.24,1.85,1.86.03.03.04.04.07.06,2.63,2.63,5.22,5.28,7.76,7.96.01.01.04.04.05.05.04.05.08.09.13.13,1.37,1.44,2.72,2.89,4.08,4.34,2.68,2.89,5.34,5.8,7.97,8.74.01.03.03.04.04.05.92,1.03,1.85,2.07,2.76,3.11.05.05.1.1.13.17,1.81,2.03,3.58,4.08,5.32,6.15.25.27.49.56.71.85,1.77,2.09,3.52,4.2,5.27,6.31,1.17,1.42,2.33,2.85,3.47,4.28,2.25,2.78,4.45,5.62,6.65,8.45,1.79,2.33,3.56,4.67,5.32,7.02.32.44.65.87.98,1.31,1.83,2.46,3.59,4.97,5.37,7.47l-66.15,98.41c-12.03-9.47-24.4-18.57-37.2-27.16-5.98-4.02-12.02-7.91-18.12-11.69-.1-.06-.2-.12-.3-.19l-25.65-15.06v.03c-16.35-9.03-33.1-17.17-50.12-24.59l36.24-168.49c.35.21.7.41,1.05.62,1.24.74,2.46,1.5,3.69,2.25,1.76,1.08,3.51,2.17,5.27,3.28ZM1003.04,187.97c1.31.05,2.61.13,3.91.21,1.81.1,3.6.23,5.41.35.95.05,1.89.12,2.83.19,2.07.14,4.14.31,6.2.48.71.06,1.43.12,2.15.18,13.24,1.17,26.43,2.81,39.46,4.93,5.06.83,10.08,1.74,15.09,2.72,7.91,1.53,15.78,3.21,23.56,5.1.04.01.09.02.13.03l-.03.14,28.91,7.85.03-.15h0c.25.08.51.16.75.24,3.07.92,6.11,1.89,9.16,2.86,1.11.36,2.2.73,3.3,1.09,2.22.74,4.43,1.48,6.65,2.24,1.25.44,2.48.87,3.73,1.31,2.09.74,4.17,1.5,6.26,2.26,1.24.46,2.47.91,3.71,1.37,2.2.83,4.38,1.68,6.57,2.54,1.07.42,2.13.82,3.2,1.25,3.2,1.27,6.39,2.57,9.55,3.9.36.16.72.31,1.07.47,2.84,1.2,5.66,2.42,8.47,3.67,1.13.51,2.25,1.01,3.38,1.52,2.04.94,4.07,1.86,6.11,2.81,1.25.59,2.5,1.18,3.75,1.78,1.92.91,3.82,1.83,5.73,2.77,1.24.62,2.49,1.23,3.73,1.85l-37.28,173.35c-28.52-10.26-57.78-18.36-87.61-24.17l-29.53-4.97s0,0,0,0c-20.94-3-42.12-4.89-63.44-5.66v-194.75c1.72.07,3.42.14,5.12.23ZM745.54,239.32c1.26-.6,2.51-1.2,3.76-1.78,2.03-.95,4.07-1.87,6.11-2.81,1.13-.51,2.25-1.01,3.38-1.52,2.81-1.25,5.63-2.47,8.47-3.67.35-.16.7-.31,1.05-.47,3.17-1.33,6.36-2.63,9.56-3.9,1.05-.43,2.13-.83,3.2-1.25,2.18-.86,4.37-1.7,6.57-2.54,1.24-.46,2.47-.91,3.71-1.37,2.08-.77,4.16-1.52,6.26-2.26,1.25-.44,2.48-.87,3.73-1.31,2.21-.75,4.42-1.5,6.65-2.24,1.09-.36,2.2-.73,3.3-1.09,3.04-.98,6.09-1.94,9.14-2.86.29-.09.57-.18.86-.27,0,0,.02,0,.03,0h0s.04.2.04.2l28.91-7.85-.04-.18h0c7.8-1.89,15.67-3.57,23.57-5.1,5.01-.98,10.03-1.89,15.07-2.72,13.03-2.12,26.22-3.76,39.46-4.93.72-.06,1.43-.12,2.15-.18,2.07-.17,4.13-.34,6.2-.48.95-.08,1.89-.14,2.84-.19,1.81-.12,3.6-.25,5.41-.35h.01c1.3-.08,2.6-.16,3.9-.21,1.7-.09,3.41-.17,5.12-.23,1.84-.06,3.67-.14,5.5-.19v194.77l1.49.04c-23.64.58-47.11,2.46-70.29,5.78l-29.54,4.95c-28.09,5.46-55.67,13.01-82.61,22.43l-37.43-174.04c1.49-.73,2.97-1.45,4.46-2.16ZM544.97,404.55c.33-.44.65-.87.98-1.31,1.76-2.35,3.52-4.7,5.32-7.02,2.2-2.83,4.4-5.67,6.64-8.45,1.14-1.43,2.3-2.86,3.47-4.28,1.74-2.11,3.5-4.21,5.27-6.31.22-.29.47-.57.72-.85,1.74-2.07,3.51-4.12,5.32-6.15.03-.06.08-.12.13-.17.91-1.04,1.83-2.08,2.76-3.11.03-.01.04-.03.05-.05,2.63-2.94,5.29-5.85,7.96-8.74,1.37-1.46,2.72-2.9,4.08-4.34.05-.04.09-.08.13-.13.03-.01.04-.04.06-.05,2.55-2.68,5.14-5.33,7.76-7.96.01-.03.04-.04.05-.06.62-.62,1.24-1.25,1.85-1.86.01-.01.03-.01.04-.03l.4-.4c.24-.24.48-.47.72-.71l.13.27,22.77-21.18-.16-.33c.56-.48,1.12-.96,1.68-1.44,2.25-1.96,4.5-3.91,6.78-5.84,1.16-.97,2.31-1.92,3.49-2.9,2.09-1.74,4.19-3.47,6.32-5.18.53-.44,1.08-.88,1.61-1.31,2.93-2.34,5.88-4.64,8.86-6.92.42-.33.83-.64,1.25-.96,2.94-2.22,5.89-4.44,8.87-6.61.21-.14.42-.3.61-.46,2.84-2.06,5.7-4.08,8.56-6.09.4-.27.79-.55,1.2-.82,5.48-3.81,11.03-7.5,16.65-11.09,1.2-.77,2.41-1.54,3.62-2.29,1.76-1.1,3.51-2.2,5.27-3.28,1.24-.75,2.46-1.51,3.69-2.25,1.85-1.1,3.69-2.2,5.54-3.28.14-.08.27-.16.41-.24l36.39,169.2c-18.55,7.89-36.77,16.63-54.51,26.41l-25.34,14.79c-.18.11-.37.22-.55.34-6.35,3.93-12.63,7.97-18.84,12.15-11.37,7.63-22.43,15.65-33.2,23.98l-66.98-99.64c.74-1.01,1.45-2.04,2.19-3.05ZM439.98,714.24c.01-1.38.05-2.74.09-4.12.03-1.3.06-2.61.1-3.91,0-.3.01-.6.03-.9.04-1.34.09-2.67.16-3.99.05-1.47.12-2.93.19-4.38.07-1.47.14-2.94.23-4.4.03-.29.04-.57.06-.86.13-2.34.29-4.68.44-7.02.17-2.3.35-4.59.55-6.89.03-.22.04-.44.05-.66.08-.88.16-1.77.25-2.65.14-1.63.3-3.25.45-4.88.22-2.24.47-4.49.72-6.72.34-2.9.69-5.8,1.07-8.69.08-.57.16-1.13.22-1.69.81-5.98,1.69-11.94,2.69-17.87.04-.23.08-.47.12-.69,2.65-15.72,6.01-31.32,10.04-46.71,1.17-4.42,2.39-8.83,3.67-13.23.34-1.18.68-2.38,1.03-3.56.49-1.66,1.01-3.33,1.52-4.99.3-.96.59-1.92.88-2.89.57-1.79,1.14-3.59,1.73-5.38.26-.82.53-1.64.81-2.46.62-1.92,1.28-3.82,1.93-5.74.23-.69.47-1.38.71-2.07.7-2.03,1.43-4.06,2.16-6.09.19-.55.39-1.09.59-1.63.79-2.17,1.61-4.34,2.43-6.52.14-.36.29-.74.43-1.12.9-2.35,1.81-4.7,2.74-7.04.07-.16.13-.31.18-.47,1.29-3.2,2.59-6.4,3.94-9.58.01-.03.03-.06.04-.1,1.38-3.25,2.8-6.49,4.23-9.73,1.34-3,2.71-5.98,4.11-8.96,1.59-3.37,3.2-6.74,4.85-10.08.03-.05.07-.1.09-.17,1.52-3.07,3.08-6.14,4.67-9.18.18-.36.36-.73.56-1.09,1.55-2.97,3.13-5.93,4.75-8.87.29-.53.59-1.07.88-1.6,1.64-2.98,3.3-5.94,5.01-8.91,2.66-4.62,5.41-9.19,8.21-13.73l60.39,89.84c-57.99,51.16-105.48,112.95-139.98,182.39,0,0,0,0,0,.01v-.03ZM439.91,791.05c4.19-11.87,8.78-23.6,13.73-35.13,43.36-100.77,114.58-186.48,205.98-247.83,93.65-62.86,203.03-96.09,316.31-96.09s222.67,33.23,316.31,96.09c91.4,61.36,162.62,147.06,205.98,247.84,4.95,11.52,9.54,23.24,13.73,35.1l-.2,427.97c-11.44-13.64-22.6-27.17-33.48-40.63-3.3-4.08-6.48-8.05-9.62-11.97l-25.67-32.64c-10.75-13.89-21.32-27.81-31.51-41.54-2.44-3.29-4.89-6.6-7.34-9.92-2.08-2.82-4.16-5.65-6.26-8.49l-27-35.94-109.77-156.52-31.81-310.1-229.52,162.7c-173.78,43.81-332.48,130.99-471.77,259.18-32.84,30.22-62.14,60.58-88.12,89.84v-291.89s0-.01,0-.02Z"/>
</svg>