<?xml version='1.0' encoding='utf-8'?>
<svg xmlns="http://www.w3.org/2000/svg" id="Capa_1" version="1.1" viewBox="0 0 2369.5 2543.3">
  
  <defs>
    <style>
      .st0 {
        fill: #e4e6ea;
      }

      .st0, .st1, .st2, .st3, .st4 {
        stroke-miterlimit: 10;
      }

      .st0, .st2 {
        stroke: #8c8c8c;
        stroke-width: .2px;
      }

      .st5 {
        fill: #e9eeea;
      }

      .st6, .st7, .st8, .st4 {
        isolation: isolate;
      }

      .st1 {
        fill: #bfdbfe;
        stroke: #9ebcdd;
      }

      .st1, .st3, .st4 {
        stroke-width: .5px;
      }

      .st2 {
        fill: #d1d5db;
      }

      .st9, .st3 {
        fill: #fff;
      }

      .st7 {
        fill: #c0d1c1;
        opacity: .6;
      }

      .st3, .st4 {
        stroke: #c1c1c1;
      }

      .st8 {
        fill: #383838;
        font-family: LeagueSpartan-Regular, 'League Spartan';
        font-size: 34.2px;
      }

      .st4 {
        fill: #e4ffd2;
        opacity: .6;
      }
    
.lot-hit{fill:#e5e7eb;stroke:#9ca3af;stroke-width:1;cursor:pointer}
.lot-label-dot{fill:#15803d;stroke:#ffffff;stroke-width:3px;pointer-events:none}.lot-label-text{fill:#ffffff;font-family:'Geist','Arial',sans-serif;font-size:15.1px;font-weight:700;font-style:normal;text-anchor:middle;dominant-baseline:middle;pointer-events:none}
</style>
  </defs>
  <path class="st5" d="M356.9,2096.3c-6,0-11.4-2.4-15.6-6.9-14.5-15.6-12.3-55-7.5-118.2,2.2-28.7,4.4-58.3,3.3-79.9-1.6-4.9-2.2-13.7.7-33.9,2.1-15.3,6-34.6,10.7-54.3,5.4-22.3,19.2-75.2,33.7-92.5,9.1-15.6,25.6-26.7,41.6-37.4,14.6-9.8,28.5-19.1,34-29.9-11.6-16.2-12.9-35.7-3.7-58.3,8.2-20.2,23.9-41.2,39.1-61.6,17.3-23.2,35.1-47.1,40.3-67.7-3.7-.6-7.8-1.2-11.8-1.8-4.1-.6-8-1.2-10.9-1.7-.7-.1-1.4-.2-2-.3-24.4,8.7-43.3,12.9-57.9,12.9h0c-20.8,0-30-9.1-34.1-16.7-8.4-15.8-3.4-39.3,16.2-76.2,15.1-28.4,36.2-59.6,54.9-87.2,16.2-24,76-127,89.3-172.6,10.5-36.1,21.4-73.5,37.7-102.4,19.9-35.3,45.1-52.4,76.8-52.4s8.1.3,12.3.8c7.7,1,15.6,1.6,23.5,1.6,22,0,44.1-4,65.6-11.8,67.3-24.5,164-66.8,215.2-105.3,17.7-13.7,27.2-15.6,50.1-20.1,3.2-.6,6.8-1.3,10.7-2.1,36.5-7.5,73.5-35,109.9-81.8,30.3-39,54.1-83.8,68.7-114.7,7.7-21.6,31.3-64,48.6-95,4.3-7.7,8-14.3,10.7-19.2,7.4-15.8,26.7-15.8,33.1-15.8s2.5,0,3.7,0c-2.5-37.7,1-59.7,10.9-70.5,4.7-5.1,10.7-7.8,17.5-7.8,19.2,0,42.2,22.1,72.4,58.5,12-9.2,32.8-25.1,37.7-28.8,20.3-24.7,40-36.7,60.3-36.7,43.7,0,73,57.1,96.6,103,5.7,11.1,71.8,146,104.3,200.4,32.5,54.5,66.1,110.8,87.6,169,32.2,37.7,43.4,63.1,36.1,82.2-9.2,24-42.6,28.3-81.2,33.3-45.9,6-97.9,12.7-113.9,51.3,0,0,0,.2-.1.2-6.2,13.9-24.2,15.7-39.2,15.7s-11.5-.3-16.6-.5c-4.3-.2-16.2-.2-16.5-.1-.5,0-14.7,5.9-19.5,17.3-5.7,13.3-14.2,33.5-48.4,33.5s-79.2-33.3-92-33.3-10.2,2.4-19.5,8.2c-10.9,6.8-27.3,17.1-58.1,27-1.1.4-3.9.5-4.1.5-8-.5-21.4-4.1-38.3-8.8-19.1-5.2-42.6-11.7-56.2-12.3,2,2.7,11.2,12.6,11.4,12.9,16.2,20.6,22.7,37.8,19.8,52.5-3.4,17.8-18.9,26.8-31.3,33.9-5.4,3.1-10.9,6.3-13.3,9.1-.9,1-1.2,1.5,0,4,24.7,45.9.1,76.4-21.6,103.4-9.4,11.6-19,23.7-25.2,36.9-20.2,46.3-44,65.2-81.9,65.2s-32.3-3-51.8-6.4l-4.6-.8c-8.8.7-18,1.3-26.6,1.3-15.1,0-32.5-1.6-47.2-13.5-6.2-5.1-11.7-11.7-16.5-20.3-8.7,14.4-22.8,23.4-39.4,23.4s-5.7-.3-8.5-.8l-6.7,11.8c-2,22,4,65.5,11,115.6,9.1,65.3,20.5,146.7,17.7,212.6-1.6,37.1-7.3,65.7-17.6,87.6-11.9,25.2-29.8,41-53.3,46.8-14.2,15.7-41.9,39.4-60,49.4-.7.4-1.5.7-2.3.9-17.5,5.2-35.6,9.1-53,12.9-60.9,13.3-118.4,25.8-146.9,88.1-5.8,17.1-24.2,21.3-37.6,24.3-5.3,1.2-10.4,2.3-13.6,3.9-.6.3-1.2.5-1.8.7-8.9,2.6-19.5,8-30.8,13.8-19.7,10-41.9,21.3-64.9,23.1-11.3,6.1-19.9,8.9-27.7,8.9s-12.7-2.4-17.4-4.5c-5-2.2-9.7-4.3-18.5-4.3s-21.6,2.4-36.6,7.2c-3.4,1.3-6.7,2-9.8,2h0Z" />
  <path class="st7" d="M1589.7,465.3l-14.1-22.9c-19.8-18.1-43.1-22.6-59.4-1.3l-74,62.1-41.6-44.9-20.9-20.8c-7.5-3.4-13,4.3-15.2,12.2v28.1l-3,39.3c4.4.3,8.3,3.2,9.8,7.5,1.6,4.5.2,9.5-3.5,12.6l-9.4,7.8,6.7,27.6c.9,3.6,0,7.4-2.5,10.2l-31.2,35.3,2.7,14.4c.1.8.2,1.5.2,2.3l-.5,27.3,3.2-.4c.4,0,.9,0,1.3,0,5.2,0,9.9,3.6,11.1,8.8l.2.8,11.2-1.5,7.7,30.1s11.8,23.4,3.4,31.7l-.5,26.8,78.4-31.2,181.3-179c.9-.9,1.9-1.6,3-2.1l-44.2-80.6h0Z" />
  <g>
    <path class="st3" d="M594,1639.3l26,25.5,22.5,56.3,42.2-37,29.8-23.5c11.4-11.7,45.3-30.1,45.3-30.1l9.5-4.7,73.2-35.3c3.8-.9,5.9-17.2,5.9-17.2,0,0,3.9-10.3,13-14.1s7.8-10.1,7.8-10.1l1.3-7.9s4.9-28.4,0-51.7c-4.9-23.2-10.4-35.8-13-56.2-2.5-20.3,12.2-45.4,12.2-45.4l-2.7-3.1-10.7,14.5-24.3,13.1c-1.3,57.7-26.9,92.9-26.9,92.9-25.3,43.5-67.8,67.4-67.8,67.4-46,26.9-87.1,26.1-87.1,26.1,0,0-20.4,3.6-53.4-4.7l-5.5,36.4,2.5,8.8h0Z" />
    <path class="st3" d="M497.4,1770.1l70.4,46.8c4.1-22.9,26.5-51.2,26.5-51.2,18.8-19.1,43.5-40.2,43.5-40.2l-22.4-57.2-18.1-16.2-8.6-10.2-3.2-10.7,6-39.1-24.2,14.1-6.8,22.5,7.7,37.1-6.7,18.6-64.1,85.7h0Z" />
    <path class="st3" d="M590.8,1802.6c-13.7,27.9-19.3,58.2-19.3,58.2-4.3,15.4,9.5,6.4,9.5,6.4l96.1-41.7-8.6-16.2-16.3-40.8-8.5-25.7c-12.4,10.3-38.8,31-52.8,59.7h0Z" />
    <path class="st3" d="M917.7,1755.9l-1.2-57.6h-.8c-15.1-8.2-19.5-22.9-19.5-22.9l-26-73.5-8.6,1.5c-6.2-3.4-11.8.3-11.8.3-8.4,6.8-44.7,23.3-44.7,23.3l-29.8,14.1-27.5,15.9.2.5c-28.2,18.2-44.2,32.4-44.2,32.4l-54.7,48.1,6.8,21.5,7.2,18.9,11.8,29.3,9.3,16.2c35.7-14.5,49.1-15.3,49.1-15.3,0,0,21.9-4.5,34.8-6.9s14.4-3.3,14.4-3.3c1-6.5,9.5-11.6,9.5-11.6v-.2c3.5-.7,16.1-2.1,20.6,10.7,0,0,4.2,10.3-3.8,16.9-8,6.7-13.6,4.7-13.6,4.7,0,0-4.9-.3-9.4-4.8,0,0-.8-3.2-5.3-1.8-4.5,1.3-33.4,6.9-33.4,6.9,0,0-19.2,4-27.9,6.1-12.6,3.1-29.6,10.8-29.6,10.8l7.2,13.7,14.8,14.8s18,17.7,49.1,37.5l45-14.8,8.4-5.7,21-16.7,22.3-21.7,20.5-14.9,18.3-10.8s18.6-26.1,23.2-39.3l-1.9-22.3h0Z" />
    <path class="st3" d="M692.3,1853.1l-8.2-14.4-71.6,30.6-41.3,16.2s-7.5,4.4-10.5,12.3-10.4,15.2-10.4,15.2l-6.8,6.4c-8.4,9.3-34.1,13.5-34.1,13.5l-13.4,2c-7.7,2.6-5.6,11.2-5.6,11.2,0,0,6.4,21.1,9.3,45.2,2.8,23.3,22.4,27.3,22.4,27.3l15.7,5.7,39.7-12.6,7-2.9,4.1-4s20.6-28.2,23.7-37.1,29.8-28.5,29.8-28.5l111.5-35.1-33.7-23.4-27.8-27.5h0Z" />
  </g>
  <path class="st7" d="M1835.4,929.4c-13.1-33.3-28.2-38.8-28.2-38.8-18.4-6.6-55.2,36.5-72.4,34.6-17.3-1.9-80.5,31.6-86.4,37.3-5.9,5.6-.9,28.7-55,24.8-7.8-.6-35.6,14.6-40,12.9-3.2-1.2,16.3-17.3,14.2-26.4-8.3-36,13.5-18.8,38.3-25.4,24.8-6.6,60-22.5,90.5-39.3,11.5-6.4,28.6,12.8,38.3,9.2,16-5.9,21.6-33.7,19.2-45.2-4-18.6,10.9-29.1-1.7-46.9-12.6-17.8,8.4-35.5,8.4-35.5-25.2-30.7-40.1-72.2-51-86.7l-5.6,6.9c0,0-.1.2-.2.2l-41.9,49,22.2,65.3c0,.2.1.4.2.6l11.6,41c1.3,4.7-.5,9.8-4.6,12.5l-36,24.1c-1.9,1.3-4.1,1.9-6.3,1.9s-2.5-.2-3.6-.6l-66.7-22.7-93.7,42.9c-1.5.7-3.1,1-4.7,1s-1.8-.1-2.7-.3l-79.7-19.5c-7.2,2.5-28,10.8-46.6,27.7-21,19-19.4,45.7-19.4,46,.3,5.2-2.9,10-7.8,11.6l-37.2,12c-1.1.4-2.3.5-3.5.5s-2.1-.2-3.2-.5l-37.7-11c-2.9-.8-5.3-2.8-6.8-5.5-1.4-2.6-1.8-5.8-.9-8.6l14.2-48.4,20.6-84.4,2.8-12.5c1.2-5.2,5.8-8.8,11.1-8.8h46.2c3.3,0,6.5,1.5,8.7,4l1.3,1.5c2.1-4.7,2.7-8.6,2.7-8.6,1.1-2.1,2.2-4,3.3-6l18-50.2c.8-2.3,2.3-4.2,4.3-5.6,2.6-21.3-15-13.8-15-13.8,0,0-9.8.9-24,2.8-3.6,2.7-9.6,5.9-19.3,8.5-6,2.8-34.3,15.3-62.4,15.3s-1.8,0-2.7,0c.2,1.8,0,3.7-.6,5.5l-23.6,64c-.4,1.1-1,2.2-1.7,3.1l-58.3,74.1-50.4,107.6-19,64.2-1.4,102.5c0,2.4-.8,4.8-2.3,6.7l-2.3,3.1c-.9,1.2-2,2.2-3.3,2.9.7,1.5,1.5,3,2.3,4.4.4,0,.8,0,1,0h.4c1,0,2.1.1,3.1.4,20.5,5.7,28.5,33.2,29.3,36.3.2.8.3,1.6.4,2.5.6,13.4,2.3,19.1,2.7,20.4,3,4.9,1.3,10.5-3.4,14l-1.4,1c-.7.5-1.3.9-2.1,1.2-11.8,5.4-51,23.2-60.6,25-1.6.3-3.2.5-4.8.5-10.9,0-17.5-7.4-19.8-12l-6.9-13.1c-4.2-7.9-11-14-19.3-17.3-12.6-4.9-22.9-8.4-29.8-10-.7-.2-1.5-.2-2.4-.2-10.1,0-26.7,9.7-34.7,15.7-2,1.5-4.4,2.3-6.8,2.3s-1.7,0-2.5-.3c-2-.4-3.8-1.4-5.2-2.8-2.1,2-4.9,3.1-7.8,3.1h-.1c-1.1,0-27.4-.3-50.3-8.6-9.9-3.6-20.5-9.1-31.2-25.2-11.4-17.3-4.5-48.1-3-54.1,0,0,0-.1,0-.2l6.2-33.8-37.7,12.2c-1.2.4-2.3.6-3.5.6-3.5,0-6.8-1.6-9-4.4-.5-.6-36.9-46.6-118.3-70.8-3.2-.9-5.8-3.2-7.1-6.2-.6-1.3-.9-2.7-1-4-21.3,7-41.8,32.8-46.2,61.7-5.3,34.2-92.5,157.3-114.9,184.4-22.5,27.1-42.9,86.5-42.9,86.5-16,34.1,30.4,17.2,30.4,17.2,54.8-43.6,95.8-2,95.4,18.1s-37.3,69.1-78.3,114-6.7,87.2-6.7,87.2c-15.9,25.1-11.8-1.9-69.3,45.6-57.5,47.6-6.1,57.8-45.6,146.3s19.3,142.4,19.3,142.4c0,0,97.6-62.8,94.5-91.8-3.1-29.1,39.4-55.6,39.4-55.6-45.5-12.2-70.9-66.5-49.8-80.8s53.4-37,61.1-116.6c6.3-65.1,47.6-54.8,47.6-54.8,204.1,21.1,222.5-182.3,222.5-182.3,34.3-12.6,63.2-57.5,63.2-57.5,58,47.6,80,14.5,80,14.5,2.7-22.1,6.1-33,9.2-38.2,2.2-3.8,7.9-2.8,8.7,1.4,15.9,83.5,74.1,52.3,149.1,68.8,35.8,7.9,67.1-78.7,85.9-91.5,29.7-20.2,36.7-63.7,19.8-83.1-17.7-20.3,8.2-36.7,31.1-48.4,28.4-14.5,7.9-36.8-15.8-58.6-26.4-24.3-.6-57.2,41.7-38.7,20.6,9,36.7,13.8,50.8,15.8,14.3,2.1,33.5-1.2,45.6-9.2,51.1-34,40-50.7,107.4-7.1,71.3,46.2,59.7-16.7,93.4-30.8,10-4.2,44.7,12.1,64.3-6.2,25.2-23.5,42.2-42.7,62.5-50.2,32.2-11.9,84.2-7.3,103.2-11.9,38.3-9.3,33.7-10.7,20.6-44h0ZM1248.8,1143.8c2.6,2.5,3.9,6.2,3.3,9.8s-2.8,6.7-6,8.4l-32.7,17.1,5.1,78c.2,2.6-.5,5.1-2,7.2-4.2,6.1-25.6,36.7-34.7,44.1-3.4,3-12.9,20.6-20.6,38.4-1.8,4.2-5.9,6.8-10.4,6.8s-1.1,0-1.6-.1c-5.1-.7-9-4.8-9.6-9.8l-6.9-56.3c-.3-2.2,19.7-18.2,20.7-20.2l1.5-18.2-23-51.6c0-.1,0-.3-.2-.4l-6-17.9c-2.3-1.3-4.1-3.4-5-5.9l-12.6-35c-.9-2.6-.9-5.5.2-8.1l13.6-33.8c.4-1.1,1.1-2.1,1.8-3l45.9-54.8c2.2-2.7,5.4-4.1,8.7-4.1s4,.5,5.8,1.6l37.5,22.5c3.8,2.3,5.9,6.5,5.4,10.9l-5.1,48.7,26.8,25.9h0Z" />
  <g>
    <path class="st9" d="M384.2,2014.5h0c0,0,0,0,0,0Z" />
    <path class="st9" d="M861.2,1549.1h0s0,.4,0,0Z" />
  </g>
  <path class="st1" d="M847.3,1142.8l-7.5-.2c-.7,0-1.2-.6-1.2-1.3,1.3-37,15.5-71.3,28.8-94.3,14.5-25.2,7.3-55.9,4.8-64.7-4.5-15.7-1.4-31-.6-34,0-.3.3-.6.6-.8l7-3.9c.9-.5,2,.2,1.9,1.3-.8,6.3-2.5,23.1.8,34.7,2.8,9.8,10.8,43.9-5.7,72.5-12.7,22-26.2,54.8-27.5,89.6,0,.7-.6,1.2-1.3,1.2h0Z" />
  <path class="st1" d="M1115.7,1392.6l-10.5-2.5c.3-.2,16.1-69.4,19.4-81.1,18.1-62.5-9.1-89-10.3-91.4-3.7-6.1-56.5-95.3-13.1-143.7,8.9-9.9,17.2-19.4,24.6-28.1,14.5-16.9,26.3-36.8,35.3-59,5.4-13.4,12.7-22.8,21.6-27.8,17.5-9.9,22.2-19.9,18.5-39.5-3.9-21,7.9-31,14.7-33.4l1.6-.5,1.6.3c.1,0,16.1,3.1,26.8-4.8,5.7-4.2,8.9-11,9.8-20.2,2.1-22.5,5-36,14.4-42.7,8.5-6.1,20.1-5,35-1.6,3.3.8,6.5.1,9.9-2,17.7-11.2,30.9-56.4,34.5-72.9l11.8,2.6c-.6,2.6-14.3,64.4-39.8,80.5-6.1,3.9-12.6,5.1-19.1,3.5-13.6-3.2-21.1-3.3-25.2-.4-5.5,4-7.7,15.9-9.4,34-1.2,12.8-6.2,22.5-14.7,28.9-12.4,9.2-28.5,8-34.2,7.2-2.5,1.5-8,6.4-5.6,19.2,4.6,24.6-2.5,39.8-24.5,52.2-6.4,3.6-12,11.2-16.3,21.8-9.5,23.4-22,44.3-37.3,62.3-7.5,8.8-15.8,18.3-24.8,28.3-38,42.3,14,128.6,14.6,129.5l.2.3c34.7,53.8,18,83.8,7,118.8-8.8,28-14.7,61.2-16.2,62h0Z" />
  <g>
    <path class="st0" d="M1400.5,860.6c-14.6-.3-25.2-4.8-25.3-4.9,0,0-5.1-2.3-11.2-7.8.2-3.6-.3-12.1-9.1-19.1,0-.6.3-1.7,1.1-3.7,4.6-10.8,7.8-19.4,9.8-26.4,2.6-9.4,7.4-23,7.4-23.1,0-.1,0-.3.1-.4,0-.5,2.2-11.6,2.4-16.9,0-.5,0-1.1.2-1.9.5-4.6,1.6-13.2-3.8-19.5-3.7-4.3-9.8-6.7-17.9-6.9,0,0-9.9.2-9.9.2-.6,0-1.5-.4-1.8-.9-.2-.3-.2-.8,0-1.5l7.1-8.2c.5-.6.8-1.4.7-2.2,0-.8-.5-1.5-1.2-2l-7-4.8c-.5-.3-1.1-.5-1.6-.5-.8,0-1.7.4-2.2,1.1l-7.3,9.1c-.2.3-5.8,7-9.1,16-1.2,1.1-6.5,5.1-21.2,9.5-.1,0-.2,0-.4.1-.2.1-25,11.2-53.4,11.2h-1.2c-.8,0-1.5,0-2.2,0-27.1,0-39.4,5.8-41,6.6-2,.8-20.3,8.3-30.3,18.5-9.9,10-51.5,50.8-51.9,51.2l-24.7,25.3c0,0-.2.2-.2.3-.5.7-13,17.7-20,37.5-6.9,19.4-25.3,68-25.5,68.5-.2.6-21.3,61.6-27.6,80.7,0,0,0,.2,0,.3,0,.4-1,4.3-4.3,4.3s-1.5-.2-2.5-.5c-.9-.3-23.1-7.3-53.7-7.3s-6.9,0-10.3.3c-6.3.3-12.4.5-18.1.5-22.4,0-33.4-2.5-33.5-2.6-.1,0-.3,0-.4,0-.3,0-6.7-.6-14.2-.6s-13.3.6-17.3,1.7c-.9.2-1.7.5-2.5.7-8.9,2.4-16.6,4.5-35.7,16.9-20.6,13.4-39.7,20.8-47.5,22.4-1.6.3-5.9,1.1-12,1.1-12.3,0-30.4-3.1-46-17.9-.2-.2-15.8-15.2-21.3-36.1-5.4-20.5-20.7-30.1-24.4-32.2l-6.3-10.8c-.5-.9-1.4-1.4-2.4-1.4h-.2c-1.1,0-2,.7-2.4,1.7-.1.2-3,5.6-21.7,20-.8.6-1.2,1.6-1.1,2.6s.7,1.8,1.6,2.3l13.3,6.1c0,0,.2,0,.2,0,.2,0,15.7,5.5,22.4,14.6,3.4,4.6,4.3,7.1,5.7,11.3l.4,1.2c3.1,8.7,12.7,30.5,36.2,45.2,17.6,11,36.7,12.7,46.6,12.7s6.9-.3,7.5-.4c2.1-.1,25.6-1.8,58.1-23.9,0,0,0,0,.2-.1.2-.2,20.1-15.7,34.2-17.1,0,0,.1,0,.2,0,0,0,9.7-1.6,20.9-1.6s8.3.2,12,.7c11,1.4,18.4,1.6,21.8,1.6s2.6,0,2.9,0c2.5,0,33.7.8,38.3.8s.6,0,.9,0c.2,0,.6,0,1.2,0,2.5,0,24.8.2,47.8,7.5.3,0,.3.1.5.1h0c.5.2,1.2,1.2,1.2,3.7,0,7.3.5,17.4,4,42.4,3.2,23,5.6,31.2,6.2,32.9.3,2.8,2.4,20.1,11.1,32.6.9,2.3,5.7,12.2,24.9,26.3.9.8,2.6,2.8,2.3,4.3-.2,1.2-1.9,2.2-3,2.7-8,3.8-17.1,8-23.5,8s-.9,0-1.3,0c0,0-.2,0-.3,0s-.2,0-.2,0l-32.8,2.8c-1.2,0-10.2-.3-15.8-1.9-6.1-1.7-20.5-5.5-21.8-5.8-1.3-.4-14.5-4.7-22.8-4.7s-1.3,0-1.8,0c-.7,0-1.4.1-2,.2-7.4.6-14.3,1.1-25,12-12.4,12.7-10.2,32.4-5.9,42l6.6,20.9c.1.3,2.7,8.4-3.5,16.4-7.3,9.4-39.3,71.2-41.2,74.9-1.3,2.2-19.4,32.5-17.8,50.3,0,2.4-.2,24.4,11.9,55.4.5,1.6,6.7,23.4,3.1,44.5-2.5,14.6-3.1,18.3-3.2,19.2,0,.2,0,.5,0,.7,0,.5.2,5.4-5.8,7.2-9.7,3-14.7,15.2-14.9,15.8,0,0,0,0,0,.1,0,.2-1.5,4.2-2,10.4-.3,3.9-4,5.2-4.1,5.3-.2,0-.3.1-.5.2l-28.9,15.8c-3.3,1.3-53.6,21.5-88.1,47-34.7,25.6-62.5,52.1-63.8,53.4l-37.3,32.7c-1.2,1-30.4,25.3-36.8,38.9-1.9,2.4-13.7,18.1-22.9,51.4-9.7,35.1-16.5,58.7-16.6,58.9,0,0,0,.2,0,.3,0,.5-2.3,12-17.5,21.3-1.5.6-13.7,5.6-29.9,7-18.7,1.7-36.3,17.2-37,17.9-.7.6-16.1,13.9-21.8,30.8-.2.4-4.5,11.2-22.3,13.5-11.3,1.5-16,1.8-18,1.8s-.5,0-.6,0c-.2,0-.5-.1-.7-.2,0,0-.2,0-.2,0-1.4,0-2.6,1.1-2.8,2.5l-4.3,32.8c-.2,1.5.9,3,2.4,3.2.1,0,.3,0,.4,0,1.4,0,2.6-1,2.8-2.4,0-.4.7-3.9,6.4-5.2,1.7-.4,4.5-.8,7.8-1.2,12.6-1.7,31.8-4.3,38.7-12.8,5.1-6.2,10.2-20.8,10.4-21.4,0,0,0-.2,0-.3,0-.1,2.4-10.6,8.2-16,.1-.1.3-.3.4-.4,2.7-3.7,6.2-7.3,7.4-7.6.6.1.8.2.9.3.1.3.3,1.3.4,2,0,.5.2,1.1.3,1.7l8.1,42.2c.2,1.9,2.3,17,17.6,29.4,0,0,.2.1.3.2.6.4,14.3,8.9,24.5,12.3.3,0,.6.1.9.1s.8,0,1.2-.3l16.8-7.9c1-.5,1.7-1.5,1.6-2.6,0-1.1-.7-2.1-1.8-2.6l-22.1-9.1c-.2,0-.3-.1-.5-.2-.7-.1-16.8-3.8-20-23.4-3.6-21.8-9-45.7-9.1-46s0-.2,0-.2c0,0-1.1-3.7.3-6.2.7-1.2,2-2.1,3.9-2.5,1.9-.4,4.4-.8,7.4-1.3,12.2-1.9,30.7-4.8,40.7-15.3,1.5-1.3,13.1-11.3,19.1-26.3.2-.4,2.7-4.9,12.3-8.2,11.4-3.9,119.6-50.2,125.2-52.6,1.2-.4,18.4-6.6,29.5-8.8,11.7-2.3,45.5-8.9,45.9-9l5.2-1.1c.3.2.7.5.9,1.1,1.7,3.4,8.7,5.8,14.2,5.8s1.2,0,1.8,0c7.2-.7,14.3-6.9,16.5-14.5,1.2-4.2.3-9.4-2.3-13.9-2.7-4.6-6.9-7.9-11.4-9-1.5-.4-3.1-.6-4.7-.6-9.5,0-16.3,7-17.9,11.7-.4,1.2-.7,1.4-.7,1.4-.2.1-1,.2-1.6.2-.5,0-1,0-1.5.2-3.4.4-51.5,10-53.5,10.4-.5,0-12.1,2.1-41.4,14.1-27.7,11.3-100.7,42.7-101.4,43,0,0-.2,0-.3.1-1.4.8-4.4,2.1-6.1,2.1s-.2,0-.3,0c0-.4-.2-1.5.5-3.6,1.5-4.8,6.7-23.1,6.9-23.9,0,0,0-.2,0-.3,0-.1,2-11.3,10.9-32.1,8.9-20.6,24-35,24.2-35.2l33.7-31.3,52.2-46c.3-.2,27.1-22.3,43.1-32.1,16.5-10.1,36.2-21.8,61.4-32.9,1.1-.5,28.2-11.8,44.2-22.9,0,0,.2-.2.3-.2,0,0,2.1-1.9,5.1-1.9s2.9.4,4.3,1.3c.3.2.6.3.9.3,0,0,2.7.5,7,1.9,1.1.4,2.4,1.8,3,2.7.3.8,1.4,3.8,3.5,10.6,2.5,8.2,6.1,16.1,6.6,17.2l9.5,27,5.6,15c0,.2.1.3.2.5.2.4,6.1,10.1,11.2,13.8,4.8,3.5,8.6,5.4,8.7,5.5.4.2.8.3,1.3.3s1.1-.2,1.6-.5c.8-.6,1.3-1.5,1.2-2.6l-1.2-16.8c0-.8-.4-1.5-1-2,0,0-3.6-3.1-6.5-11.3l-19.8-55.8c0-.1-.1-.3-.2-.4-1.9-3.5-3.2-8.4-2.2-9.9.7-1,1.3-1.9,1.8-2.8,1.8-2.8,3.3-5.2,5.4-6.1.5-.2,1.8-.6,4.7-.6s6.2.4,6.2.5c.1,0,.3,0,.4,0,.7,0,1.4-.3,1.9-.8.6-.6,1-1.4.9-2.3l-1.2-13.6c-.1-1.4-1.3-2.6-2.8-2.6-3,0-6.8-.3-7.7-.5-1.6-.5-3.7-1.6-4.2-2.9-1.3-3.6-5.8-8.2-9.4-11.5-.3-.4-1.2-1.9-.9-4.2.1-1,.6-3.9,1.2-7.2,1.5-8.8,3.9-22.1,3.8-28.8v-2.5c0-9.1,0-21.5-5.8-40.6-6.2-20.2-7.8-26.1-7.8-26.2,0-.1,0-.2-.1-.3,0-.1-5.8-14.7,1.6-37.5,0,0,2.8-7.9,8.8-18.4,6.2-10.8,45.6-81.9,46-82.6.3-.5,7.5-12.8,2.8-27.7-4.4-13.9-6.7-20.8-6.7-20.8,0-.1,0-.2-.1-.3,0,0-4-8.9-.6-18.5,3.1-8.7,13.5-10.7,14.5-10.9.2,0,.8,0,1.6,0,1.9,0,5.6.2,9.3,1.4,6.2,2,34.5,10.1,44.5,11.2,1.2.1,2.6.2,4.3.2,11.9,0,34.2-3,35.7-3.2,1.5-.2,21.7-2.3,32-8.3,6.4-3.8,9.1-6.5,10.7-8.2.8-.8,1.2-1.2,1.4-1.3.3,0,.7-.2,1.1-.4.8-.3,1.4-.5,2.1-.5,2.1,0,4.6,2.6,6.4,4.8.7.8,1.3,1.6,1.9,2.4,5.6,6.9,9.7,11.8,11.1,23.7-.2,2.6-.8,16.4,4.3,22.8,5.1,6.2,8.4,9.8,18.1,9.8s.6,0,.9,0c9.7-.2,20.2-1,24.8-5.6h0c3.9-4,7.4-7.3,9-17.1l.2-1c1.4-8.6,2.6-15.9-2.8-32.7-2.1-6.5-4.6-11.3-7.5-16.9-4.7-9-10.4-20.2-17.4-44.3,0-.2,0-.3-.2-.5,0,0-3.6-7.4-3.6-13.4,0-.5.3-1.3,1.7-1.3s.6,0,.9,0c.2,0,.3,0,.5,0,.7,0,1.3-.2,1.8-.7.6-.5,1-1.3,1-2.2v-8.2c0-.8-.3-1.5-.8-2.1-.5-.5-1.2-.8-2-.8h-.2c-.8,0-2-.2-2.4-.8-.3-.3-.4-1-.3-1.8,0-.8-.1-1.6-.6-2.2-.5-.6-1.2-1-2-1l-7-.3h-.1c-.7,0-1.4.3-1.9.8-.6.5-.9,1.3-.9,2v19c0,.2,0,.4,0,.6l5.5,27.4c0,.2,0,.4.2.6l9.5,21.8c0,0,0,.1,0,.2.1.2,12.2,23.7,15.1,36,2.8,12.1-.5,24.1-4,28.2-1,1.2-5,2.5-12.9,2.5s-6.1-.2-6.2-.3c-.3,0-6.6-.7-6.8-12.9-.2-14.2-3.9-21.9-4.8-23.6-.8-2.3-5.9-15.5-25.5-28.3-.3-.2-.5-.3-.8-.4-.3-.2-2.2-1.5-4.7-7.2,0-.1-.1-.3-.2-.4-.1-.2-3.2-4.9-9.4-9.6-15.2-11.7-19.7-19.4-20.9-23.8-2.6-9.9-6.6-27.8-6.7-28,0-.3-6.8-31.5-7.6-49.8-.8-18.3-1-31.5,3.6-47.3,4.6-15.9,14.8-40,14.9-40.4l20.7-53.9,20.3-53.9c0-.2,6.9-16.6,19.7-28.9,13.3-12.8,27.8-27.4,27.9-27.5l27.3-26.9c0,0,.2-.2.3-.3.2-.2,16.2-21.2,41.9-28.4,14.5-4,19.9-4.9,23.6-4.9s2.1,0,3.2.2c1.4,0,2.9.2,4.9.2s1.8,0,2.8,0c1.1,0,2.2,0,3.4-.1,11.6-.4,26-.9,55-12.4,31.4-12.5,37.7-16.4,37.9-16.5,0,0,3.6-2.1,7.4-2.1s4.3.8,5.9,2.5c.2.2.1.2.3.3.5.6,2.9,4.8-1.5,18.2,0,0-6.1,16.4-22,59.5-.9,1.2-2.8,3.5-3.9,4.6-.7.7-6.7,6.8-6.2,14.8.4,6.5,2.8,10.9,8,15.1,3.3,2.7,7,4,10.8,4s3.8-.3,5.8-.9c3.2,2.4,11.7,8.6,18.2,11,7.2,2.7,16.1,5.1,31.7,5.2,0-6.2.3-12.4.6-18.6h.1ZM802.9,1802c0,2.5-2,4.5-4.5,4.5s-4.5-2-4.5-4.5" />
    <path class="st2" d="M1400.4,863.4c-15.3-.4-26.3-5.1-26.3-5.1,0,0-6-2.6-13.1-9.3,0,0,2.2-10.6-8.7-18.6,0,0-1.1-1.3,1.1-6.4,2.2-5.1,6.9-16.4,9.6-26s7.5-23.3,7.5-23.3c0,0,2.1-11.3,2.4-16.5s5.4-24.5-18.8-25.3l-10,.2s-6.3-.7-4.1-6.7l7.5-8.6-7-4.8-7.3,9.1s-5.7,6.8-8.8,15.8c0,0-4.1,5-22.8,10.7,0,0-26,11.8-55.8,11.5-29.9-.3-42,6.3-42,6.3,0,0-19.4,7.7-29.5,17.9-10.1,10.2-51.9,51.2-51.9,51.2l-24.7,25.3s-12.7,17.1-19.6,36.7c-7,19.6-25.5,68.5-25.5,68.5,0,0-21.2,61.3-27.6,80.6,0,0-1.8,9-10.5,5.9,0,0-27.3-8.8-62.9-6.9-35.6,1.9-52.5-2.1-52.5-2.1,0,0-20.3-1.8-30.5,1-10.2,2.8-17,3.9-37.4,17.2s-39.8,21-48.4,22.8c-8.6,1.8-37.3,4.5-60.6-17.5,0,0-16.3-15.5-22.1-37.4-5.8-21.9-23.7-30.8-23.7-30.8l-6.7-11.5s-2.4,5.6-22.5,21l13.3,6.1s16.4,5.7,23.8,15.5c4,5.3,4.8,8.3,6.5,13.2,1.7,4.9,10.4,28.3,35,43.7,24.6,15.4,52.3,11.9,52.3,11.9,0,0,23.6-.9,56.7-23.5,0,0,20.6-16.1,35.6-17.7,0,0,17.6-2.9,33.7-.9,16.1,2,24.3,1.5,24.3,1.5,0,0,38.6.9,38.8.8.2-.1,24.9-.5,50.3,7.6,0,0,3.7.3,3.7,6.5s.3,16,4,42c3.7,26,6.2,32.8,6.2,32.8,0,0,1.7,19,10.8,31.9,0,0,2.9,9.9,24.1,25.5,0,0,8.4,7.2-1.2,11.8-9.6,4.5-19.2,8.9-26.3,8.2l-33,2.8s-10.2-.2-16.6-2c-6.4-1.8-21.8-5.8-21.8-5.8,0,0-15.7-5.2-23.6-4.5-7.9.7-14.4.2-25.3,11.3s-9.7,29.3-5.2,39l6.7,21s3.3,9.6-3.9,19c-7.3,9.4-41,74.5-41,74.5,0,0-19.2,31.4-17.4,48.8,0,0-.8,22.5,11.8,54.6,0,0,7,23.2,3.2,45.9-2.5,14.6-3.1,18.3-3.2,19.2,0,0,.7,7.5-7.8,10.1-8.5,2.6-13,14.1-13,14.1,0,0-1.3,3.8-1.8,9.7-.5,5.9-6,7.7-6,7.7l-29.1,15.8s-52,20.4-87.7,46.7c-35.6,26.3-63.6,53.2-63.6,53.2l-37.4,32.8s-30.3,25.2-36.2,38.3c0,0-12.8,15.2-22.6,50.7s-16.6,58.9-16.6,58.9c0,0-2.2,13.2-19,23.3,0,0-13,5.7-31,7.3s-35.4,17.2-35.4,17.2c0,0-15.5,13.2-21,29.7,0,0-4.6,12.7-24.6,15.3-20,2.6-20,1.6-20,1.6l-4.3,32.8c0-.7,1.1-5.8,8.6-7.5,8-1.8,36.9-3.3,44.9-13,4.8-5.9,9.9-20.6,9.9-20.6,0,0,2.5-11.3,9.1-17.5,0,0,6.8-9.5,10.1-8.8,3.5.8,3.2,2,4,6.3.8,4.3,8.2,42.3,8.2,42.3,0,0,1.3,15.2,16.6,27.6,0,0,13.9,8.7,23.8,12l16.8-7.9-22.1-9.1s-18.7-3.8-22.3-25.8c-3.6-22-9.1-45.8-9.1-45.8,0,0-3.3-10.2,6.3-12.3,9.5-2.2,35.1-3.4,46.8-15.8,0,0,12.4-10.1,18.5-25.3,0,0,2.4-5.8,14-9.8s125-52.6,125-52.6c0,0,18.2-6.6,30-8.9s45.8-9,45.8-9l6.1-1.3s2,.5,3.2,2.8c1,2.1,7.6,4.6,13.2,4.1s12-5.5,14-12.5-3.4-17.4-11.7-19.4c-10.2-2.4-17.8,5-19.2,9.3-1.3,3.8-2.7,3.2-6.1,3.7-3.3.4-53.4,10.4-53.4,10.4,0,0-11.4,1.9-40.8,13.9-28,11.4-101.4,43-101.4,43,0,0-8.1,4.5-10.1,1.3,0,0-1.3-1.5.2-6.1,1.5-4.8,6.9-23.8,6.9-23.8,0,0,1.8-11.3,11.1-32.7,9.3-21.4,24.8-36.1,24.8-36.1l33.8-31.3,52.3-46.1s27.1-22.3,43.5-32.3c17.4-10.7,37.2-22.3,61.8-33.1,0,0,27.8-11.6,43.7-22.6,0,0,5.5-5.2,12.8-1,0,0,2.8.5,7.4,2,2.7.9,4.7,4.1,4.7,4.1,0,0,1.1,2.6,3.7,11.1s6.5,17,6.5,17l9.5,27.1,5.6,15s5.7,9.5,10.4,13c4.7,3.4,8.3,5.2,8.3,5.2l-1.2-16.8s-4.2-3.3-7.4-12.5-19.8-55.8-19.8-55.8c0,0-4.8-8.9-2-12.9s4.7-8.3,8.5-9.9c3.8-1.6,12.5-.3,12.5-.3l-1.2-13.6s-6.6,0-8.4-.7-5.1-1.9-6.1-4.6-4.6-6.7-8.8-10.6c0,0-2-2.4-1.6-6.3.4-3.9,5-26.5,5-35.7s.5-21.7-5.7-42.2-7.8-26.3-7.8-26.3c0,0-6.3-15.2,1.5-39.5,0,0,2.8-8,9-18.9,6.3-10.9,46-82.6,46-82.6,0,0,6.9-11.5,2.5-25.4-4.4-13.9-6.7-20.8-6.7-20.8,0,0-4.6-9.7-.7-20.6,3.8-10.9,16.9-12.8,16.9-12.8,0,0,6-.5,12.2,1.5,6.1,2,34.3,10,43.9,11,9.5,1.1,39.4-3,39.4-3,0,0,20.9-2.1,30.9-7.9,10-5.8,10.2-9,12.7-9.7,2.6-.8,5.9-3.4,12.6,4.8,6.6,8.2,12.1,13.5,13.6,27.8,0,0-1.2,15.1,3.6,21s7.4,8.9,16.7,8.7c9.3-.2,19.1-1,22.9-4.8,3.8-3.8,6.8-6.6,8.2-15.6,1.5-8.9,2.9-15.6-2.5-32.3-5.4-16.7-13.7-22.2-24.9-61.3,0,0-3.9-8-3.9-14.8,0,0,.3-4.9,5.8-3.9v-8.2c0,0-6.5.4-5.7-5.8l-7-.3v19c0,0,5.4,27.4,5.4,27.4l9.5,21.8s12.4,23.9,15.3,36.6-.4,25.8-4.6,30.7c-4.2,4.9-21.4,3.2-21.4,3.2,0,0-9.2-.4-9.4-15.7s-4.5-22.5-4.5-22.5c0,0-3.9-13.7-24.5-27.1,0,0-2.7-.2-6.6-8.7,0,0-2.9-4.4-8.8-8.9-5.9-4.5-19.3-15.3-21.9-25.4-2.6-10.1-6.7-28.1-6.7-28.1,0,0-6.8-31.5-7.6-50.2-.8-18.8-1-32,3.7-48.3s15-40.6,15-40.6l20.7-53.9,20.4-53.9s6.9-16.9,20.4-29.9,27.9-27.5,27.9-27.5l27.3-26.9s16.4-21.9,43.4-29.4,23.1-4.1,35.2-4.7c12.1-.5,26,.1,57.5-12.4s37.4-16.3,37.4-16.3c0,0,10.2-6.2,16.9.8,0,0,5.3,3.8-.6,21.4,0,0-6.1,16.5-22.1,60,0,0-2.8,3.6-4.4,5.2-1.6,1.6-5.7,6.7-5.3,12.6s2.5,9.5,7,13.1c5.5,4.4,10.8,3.8,15.4,2.1,0,0,11,8.7,18.7,11.5,6.1,2.3,14.7,5,30.7,5.1,0-4.3.2-8.7.4-13h0Z" />
  </g>
  <path class="st4" d="M915.7,1755.8l-1.2-57.6h-.8c-15.1-8.2-19.5-22.9-19.5-22.9l-26-73.5-.9.2c.1-6.9-.4-14.2-.4-14.2,0,0-16.8-24.7-7.7-28.5s7.8-10.1,7.8-10.1l1.3-7.9s4.9-28.4,0-51.7-10.4-35.8-13-56.2c-2.5-20.3,12.2-45.4,12.2-45.4l-2.7-3.1-10.7,14.5-24.3,13.1c-1.3,57.7-26.9,92.9-26.9,92.9-25.3,43.5-67.8,67.4-67.8,67.4-46,26.9-87.1,26.1-87.1,26.1,0,0-21.4,1.8-54.4-6.5l-28.7,14-6.8,22.5,7.7,37.1-6.7,18.6-64.1,85.7-7,175.9s6.4,21.1,9.3,45.2c2.8,23.3,22.4,27.3,22.4,27.3l15.7,5.7,39.7-12.6,7-2.9,4.1-4s20.6-28.2,23.7-37.1,29.8-28.5,29.8-28.5l118.7-37.1,45-14.8,8.4-5.7,21-16.7,22.3-21.7,20.5-14.9,18.3-10.8s18.6-26.1,23.2-39.3l-1.9-22.3h0Z" />
  <g class="st6">
    <text class="st8" transform="translate(614.7 1751.9)"><tspan x="0" y="0">P</tspan></text>
    <text class="st8" transform="translate(631.8 1751.9)"><tspan x="0" y="0">r</tspan></text>
    <text class="st8" transform="translate(643.4 1751.9)"><tspan x="0" y="0">รณ</tspan></text>
    <text class="st8" transform="translate(659.8 1751.9)"><tspan x="0" y="0">ximamente</tspan></text>
  </g>
<g id="MLOC-stores-master"><path d="M928.6,1265.9s28.5-21.6,46.5-17.5c9.1,2.1,21.4,6.6,31.3,10.5,10.8,4.2,19.8,12.2,25.2,22.5l7,13.2s3.4,7.2,12.4,5.5c9-1.7,58-24.2,58-24.2l1.4-1s-2.9-5.7-3.8-24.9c0,0-6.6-24.2-21.4-28.3,0,0-4.8.2-9.5,6s-29,13.3-51.8,13.6-22.4,3.4-50.6-4.1-31.2-11.2-46.3,4.8c0,0-4.4,12.2,1.5,23.7h0Z" class="lot-hit" id="lot-2" />
    <path d="M913,1266s-8.4-16.7,2.2-34.7c10.6-18,30.8-15.8,30.8-15.8l21,4.7-15.4-32.6-26.7-1-85.6,5.5s-7.8,31.1,1.4,45.1c9.2,14,17.8,18,25.5,20.8,21.4,7.7,46.6,8,46.6,8h0Z" class="lot-hit" id="lot-3" />
    <path d="M3.51,26.6l83.92-15.98s4.76,27.99,15.97,39.14c11.21,11.16,23.75,17.71,22.38,23.45-1.36,5.74-16.39,14.98-35.81,14.18l-28.73,3.05s-15.49-.71-37.75-8.43l-15.36-32.62L3.51,26.59h0Z" transform="translate(943.65 1138.18)"  class="lot-hit" id="lot-4" />
    <path d="M961.7,1058.7l-14.5,106.1,83.9-16-5.1-25.9-3.3-22.9-2.4-30.2s-.2-2.4-10.3-5c-20.1-5.3-48.4-6-48.4-6h0Z" class="lot-hit" id="lot-5" />
    <polygon points="890.9 1188.8 914.4 1057.9 961.7 1058.7 947.1 1164.8 951.8 1187.6 925.1 1186.6 890.9 1188.8" class="lot-hit" id="lot-6" />
    <path d="M839.5,1192.3l9.1-49.1-1.4-7.5s.7-11.4,2.6-21.3c2-9.8,4.6-24.8,4.6-24.8l6.8-16.9,5.8-7.1-.5-6.8s14.1-5.7,48-.8l-23.9,131.1-51,3.3h0Z" class="lot-hit" id="lot-7" />
    <path d="M669.5,1082.1l19.6-42.5s11.3,46.2,61.7,57.7,83.6-24.9,98.2-31.8,12.2-5.8,12.2-5.8v3.8c0,0-19,77.7-19,77.7l-48.6,15.7s-37.5-49.1-124.1-74.7h0Z" class="lot-hit" id="lot-8" />
    <path d="M696.9,1021.9l13.6-35.2s14.3,8.4,41.5,5.5c27.3-2.8,36.3-4.2,36.3-4.2l-1.4,95.1s-66.8,19.6-90-61.2h0Z" class="lot-hit" id="lot-9" />
    <path d="M788.3,988.2l84.8-41.3.7,13.4s-2.3,8.2-.7,13.2,3.8,15.2,3.8,15.2l4,35.5-12.9,20s-12.7.9-39.9,18.6c-27.2,17.8-41.2,20.5-41.2,20.5l1.4-95h0Z" class="lot-hit" id="lot-10" />
    <path d="M878.4,945.4l.9,14.1-1.3,10.2,4.8,20.2-5.7,32.8,2.1,13-3.9,7.3s6.4-2.1,20.6.2c14.2,2.3,35.3,1.8,35.3,1.8l7.4-128.1-60.2,28.6h0Z" class="lot-hit" id="lot-11" />
    <polygon points="987.8 901.5 979.9 1045.4 932 1044.6 939.4 916.5 987.8 901.5" class="lot-hit" id="lot-12" />
    <path d="M979.1,1045.7s18.4,1.5,36.4,6.9c0,0,6.5,2.1,8.5-8.3s37.6-104.8,37.6-104.8l-76.5-1.2-5.9,107.5h0Z" class="lot-hit" id="lot-13" />
    <path d="M985,938.2l76.8,1.5,16-41.6s7.6-25.1,23.3-41.9c15.7-16.8,29.4-29.4,29.4-29.4,0,0-51.3,17-75.4,25.4,0,0-44.5,37.3-68.2,49.3l-2,36.5h0Z" class="lot-hit" id="lot-14" />
    <path d="M1078.2,1193.3l1.4-104.1,19.7-66.5-47.7-18.3s-20.2,39-17.2,79.2,15,83.1,15,83.1c0,0,6.6,13.1,26.6,29.7l2.3-3.1h0Z" class="lot-hit" id="lot-15" />
    <polygon points="1094.7 891.7 1150.5 913.2 1099.2 1022.7 1051.5 1004.4 1094.7 891.7" class="lot-hit" id="lot-16" />
    <path d="M1233.3,774l-23.6,64-59.1,75.2-55.8-21.4s6.1-21.3,43-52.2l43.6-43s15.6-17.7,51.9-22.6h0Z" class="lot-hit" id="lot-17" />
    <path d="M1181.2,778.1s27-20.6,57.9-17.3,66.7-14.3,66.7-14.3l-2.2-68.3-18.9-39-57.1,81.8-46.3,57.2h0Z" class="lot-hit" id="lot-18" />
    <path d="M1284.6,639.1l16-39.5s31.1-48.7,37-71.3h23l-14.9,12.3,8.4,34.5-34,38.5-.8,1.2,3.7,19.7-.6,29.2,1.8,10.8,14-1.6,3.2,13.9s6.9,15.5-.5,25.2c-7.4,9.7-11.2,11.7-16.7,25.9,0,0-3.4,5-18.4,8.7l-2.2-68.3-18.9-39h0Z" class="lot-hit" id="lot-19" />
    <path d="M1150.9,1342.2s15.5-35.9,23.8-42.6,32.5-41.8,32.5-41.8l-5.6-85.4,39.3-20.5-30.7-29.7-76,46.1,8.3,24.9,20.4,53.8-18.9,38.8,6.9,56.3h0Z" class="lot-hit" id="lot-20" />
    <polygon points="1178.3 1045.6 1215.8 1068.1 1210.2 1122.3 1131.4 1169.2 1118.8 1134.2 1132.4 1100.4 1178.3 1045.6" class="lot-hit" id="lot-21" />
    <path d="M1245.5,981.8l14.3-48.7,20.7-84.8,2.9-12.5h46.2l21.8,25.9,47.8,15.8-2,17.1s-28.4,8.2-53.7,31c-25.3,22.9-23.1,55.2-23.1,55.2l-37.2,12-37.7-11h0Z" class="lot-hit" id="lot-22" />
    <polygon points="1374.3 769.2 1455.9 736.7 1638.9 556.1 1705.9 690.5 1695.2 703.8 1649 757.7 1673.2 829.1 1684.8 870.1 1648.8 894.2 1577.8 870.1 1480 914.9 1397.2 894.6 1393.3 869.1 1358.5 852.4 1353.5 827 1374.3 769.2" class="lot-hit" id="lot-23" />
      </g><g id="lot-labels"><circle class="lot-label-dot" cx="1056.30" cy="1261.20" r="15.8" /><text class="lot-label-text" x="1056.30" y="1261.20">2</text><circle class="lot-label-dot" cx="886.10" cy="1221.70" r="15.8" /><text class="lot-label-text" x="886.10" y="1221.70">3</text><circle class="lot-label-dot" cx="1003.80" cy="1191.10" r="15.8" /><text class="lot-label-text" x="1003.80" y="1191.10">4</text><circle class="lot-label-dot" cx="989.20" cy="1110.90" r="15.8" /><text class="lot-label-text" x="989.20" y="1110.90">5</text><circle class="lot-label-dot" cx="928.50" cy="1115.50" r="15.8" /><text class="lot-label-text" x="928.50" y="1115.50">6</text><circle class="lot-label-dot" cx="876.90" cy="1115.50" r="15.8" /><text class="lot-label-text" x="876.90" y="1115.50">7</text><circle class="lot-label-dot" cx="807.10" cy="1121.10" r="15.8" /><text class="lot-label-text" x="807.10" y="1121.10">8</text><circle class="lot-label-dot" cx="755.00" cy="1031.80" r="15.8" /><text class="lot-label-text" x="755.00" y="1031.80">9</text><circle class="lot-label-dot" cx="831.80" cy="1014.00" r="15.8" /><text class="lot-label-text" x="831.80" y="1014.00">10</text><circle class="lot-label-dot" cx="909.60" cy="986.10" r="15.8" /><text class="lot-label-text" x="909.60" y="986.10">11</text><circle class="lot-label-dot" cx="959.90" cy="978.40" r="15.8" /><text class="lot-label-text" x="959.90" y="978.40">12</text><circle class="lot-label-dot" cx="1013.60" cy="982.80" r="15.8" /><text class="lot-label-text" x="1013.60" y="982.80">13</text><circle class="lot-label-dot" cx="1041.30" cy="901.50" r="15.8" /><text class="lot-label-text" x="1041.30" y="901.50">14</text><circle class="lot-label-dot" cx="1061.60" cy="1056.00" r="15.8" /><text class="lot-label-text" x="1061.60" y="1056.00">15</text><circle class="lot-label-dot" cx="1103.40" cy="954.30" r="15.8" /><text class="lot-label-text" x="1103.40" y="954.30">16</text><circle class="lot-label-dot" cx="1154.90" cy="861.80" r="15.8" /><text class="lot-label-text" x="1154.90" y="861.80">17</text><circle class="lot-label-dot" cx="1272.00" cy="715.50" r="15.8" /><text class="lot-label-text" x="1272.00" y="715.50">18</text><circle class="lot-label-dot" cx="1305.80" cy="639.10" r="15.8" /><text class="lot-label-text" x="1305.80" y="639.10">19</text><circle class="lot-label-dot" cx="1167.30" cy="1196.40" r="15.8" /><text class="lot-label-text" x="1167.30" y="1196.40">20</text><circle class="lot-label-dot" cx="1170.70" cy="1115.50" r="15.8" /><text class="lot-label-text" x="1170.70" y="1115.50">21</text><circle class="lot-label-dot" cx="1322.60" cy="891.70" r="15.8" /><text class="lot-label-text" x="1322.60" y="891.70">22</text><circle class="lot-label-dot" cx="1541.40" cy="784.00" r="15.8" /><text class="lot-label-text" x="1541.40" y="784.00">23</text></g></svg>