<?xml version="1.0" encoding="UTF-8"?>
<svg id="Layer_1" xmlns="http://www.w3.org/2000/svg" version="1.1" viewBox="0 0 240 240">
  <!-- Generator: Adobe Illustrator 29.1.0, SVG Export Plug-In . SVG Version: 2.1.0 Build 142)  -->
  <defs>
    <style>
      .st0 {
        fill: #15803d;
      }

      .st1, .st2 {
        isolation: isolate;
      }

      .st3 {
        fill: #c1c1c1;
        stroke: #fff;
        stroke-miterlimit: 1.8;
        stroke-width: 0px;
      }

      .st2 {
        fill: #fff;
        font-family: LeagueSpartan-Regular, 'League Spartan';
        font-size: 16px;
      }
    </style>
  </defs>
  <path id="lot-2" class="st3" d="M17.4,125.2s30.2-22.9,49.3-18.5c9.6,2.2,22.7,7,33.2,11.1,11.4,4.5,21,12.9,26.7,23.8l7.4,14s3.6,7.6,13.1,5.8,61.5-25.6,61.5-25.6l1.5-1.1s-3.1-6-4-26.4c0,0-7-25.6-22.7-30,0,0-5.1.2-10.1,6.4s-30.7,14.1-54.9,14.4c-24.2.3-23.7,3.6-53.6-4.3-29.9-7.9-33.1-11.9-49.1,5.1,0,0-4.7,12.9,1.6,25.1h0v.2Z"/>
  <g>
    <circle class="st0" cx="152.7" cy="120.2" r="16.7"/>
    <g class="st1">
      <g class="st1">
        <text class="st2" transform="translate(147.9 124.8)"><tspan x="0" y="0">2</tspan></text>
      </g>
    </g>
  </g>
</svg>